<mxfile host="app.diagrams.net" modified="2021-06-27T18:12:18.994Z" agent="5.0 (Macintosh; Intel Mac OS X 10_13_6) AppleWebKit/605.1.15 (KHTML, like Gecko) Version/13.1.2 Safari/605.1.15" etag="JDpwQE116ufE0oi2k80B" version="14.8.1" type="github">
  <diagram id="C5RBs43oDa-KdzZeNtuy" name="Page-1">
    <mxGraphModel dx="2051" dy="1120" grid="1" gridSize="10" guides="1" tooltips="1" connect="1" arrows="1" fold="1" page="1" pageScale="1" pageWidth="827" pageHeight="1169" math="0" shadow="0">
      <root>
        <mxCell id="WIyWlLk6GJQsqaUBKTNV-0" />
        <mxCell id="WIyWlLk6GJQsqaUBKTNV-1" parent="WIyWlLk6GJQsqaUBKTNV-0" />
        <mxCell id="pWHwpGkM0wFhMGI71s9u-25" style="edgeStyle=orthogonalEdgeStyle;rounded=0;orthogonalLoop=1;jettySize=auto;html=1;exitX=1;exitY=0.5;exitDx=0;exitDy=0;" edge="1" parent="WIyWlLk6GJQsqaUBKTNV-1" source="pWHwpGkM0wFhMGI71s9u-0" target="pWHwpGkM0wFhMGI71s9u-1">
          <mxGeometry relative="1" as="geometry" />
        </mxCell>
        <mxCell id="pWHwpGkM0wFhMGI71s9u-0" value="Real World&lt;br&gt;Real Creatures&lt;br&gt;" style="rounded=0;whiteSpace=wrap;html=1;" vertex="1" parent="WIyWlLk6GJQsqaUBKTNV-1">
          <mxGeometry x="-360" y="150" width="120" height="60" as="geometry" />
        </mxCell>
        <mxCell id="pWHwpGkM0wFhMGI71s9u-26" style="edgeStyle=orthogonalEdgeStyle;rounded=0;orthogonalLoop=1;jettySize=auto;html=1;exitX=1;exitY=0.5;exitDx=0;exitDy=0;" edge="1" parent="WIyWlLk6GJQsqaUBKTNV-1" source="pWHwpGkM0wFhMGI71s9u-1" target="pWHwpGkM0wFhMGI71s9u-2">
          <mxGeometry relative="1" as="geometry" />
        </mxCell>
        <mxCell id="pWHwpGkM0wFhMGI71s9u-1" value="Savage Land&lt;br&gt;Extinct Creatures" style="rounded=0;whiteSpace=wrap;html=1;" vertex="1" parent="WIyWlLk6GJQsqaUBKTNV-1">
          <mxGeometry x="-180" y="150" width="120" height="60" as="geometry" />
        </mxCell>
        <mxCell id="pWHwpGkM0wFhMGI71s9u-27" style="edgeStyle=orthogonalEdgeStyle;rounded=0;orthogonalLoop=1;jettySize=auto;html=1;exitX=1;exitY=0.5;exitDx=0;exitDy=0;" edge="1" parent="WIyWlLk6GJQsqaUBKTNV-1" source="pWHwpGkM0wFhMGI71s9u-2" target="pWHwpGkM0wFhMGI71s9u-3">
          <mxGeometry relative="1" as="geometry" />
        </mxCell>
        <mxCell id="pWHwpGkM0wFhMGI71s9u-2" value="Real World&amp;nbsp;&lt;br&gt;Cryptids" style="rounded=0;whiteSpace=wrap;html=1;" vertex="1" parent="WIyWlLk6GJQsqaUBKTNV-1">
          <mxGeometry y="150" width="120" height="60" as="geometry" />
        </mxCell>
        <mxCell id="pWHwpGkM0wFhMGI71s9u-28" style="edgeStyle=orthogonalEdgeStyle;rounded=0;orthogonalLoop=1;jettySize=auto;html=1;exitX=1;exitY=0.5;exitDx=0;exitDy=0;" edge="1" parent="WIyWlLk6GJQsqaUBKTNV-1" source="pWHwpGkM0wFhMGI71s9u-3" target="pWHwpGkM0wFhMGI71s9u-4">
          <mxGeometry relative="1" as="geometry" />
        </mxCell>
        <mxCell id="pWHwpGkM0wFhMGI71s9u-3" value="Goblin Slayer&lt;br&gt;BDSM Extermination" style="rounded=0;whiteSpace=wrap;html=1;" vertex="1" parent="WIyWlLk6GJQsqaUBKTNV-1">
          <mxGeometry x="184" y="150" width="120" height="60" as="geometry" />
        </mxCell>
        <mxCell id="pWHwpGkM0wFhMGI71s9u-29" style="edgeStyle=orthogonalEdgeStyle;rounded=0;orthogonalLoop=1;jettySize=auto;html=1;entryX=0;entryY=0.5;entryDx=0;entryDy=0;" edge="1" parent="WIyWlLk6GJQsqaUBKTNV-1" source="pWHwpGkM0wFhMGI71s9u-4" target="pWHwpGkM0wFhMGI71s9u-5">
          <mxGeometry relative="1" as="geometry" />
        </mxCell>
        <mxCell id="pWHwpGkM0wFhMGI71s9u-4" value="Witcher World&lt;br&gt;Low Fantasy Critters" style="rounded=0;whiteSpace=wrap;html=1;" vertex="1" parent="WIyWlLk6GJQsqaUBKTNV-1">
          <mxGeometry x="353.5" y="150" width="106.5" height="60" as="geometry" />
        </mxCell>
        <mxCell id="pWHwpGkM0wFhMGI71s9u-31" style="edgeStyle=orthogonalEdgeStyle;rounded=0;orthogonalLoop=1;jettySize=auto;html=1;exitX=0;exitY=1;exitDx=0;exitDy=0;" edge="1" parent="WIyWlLk6GJQsqaUBKTNV-1" source="pWHwpGkM0wFhMGI71s9u-5" target="pWHwpGkM0wFhMGI71s9u-6">
          <mxGeometry relative="1" as="geometry" />
        </mxCell>
        <mxCell id="pWHwpGkM0wFhMGI71s9u-5" value="How To Train Your Dragon&lt;br&gt;Small Dragons" style="rounded=0;whiteSpace=wrap;html=1;" vertex="1" parent="WIyWlLk6GJQsqaUBKTNV-1">
          <mxGeometry x="520" y="150" width="120" height="60" as="geometry" />
        </mxCell>
        <mxCell id="pWHwpGkM0wFhMGI71s9u-30" style="edgeStyle=orthogonalEdgeStyle;rounded=0;orthogonalLoop=1;jettySize=auto;html=1;exitX=1;exitY=0.5;exitDx=0;exitDy=0;" edge="1" parent="WIyWlLk6GJQsqaUBKTNV-1" source="pWHwpGkM0wFhMGI71s9u-6" target="pWHwpGkM0wFhMGI71s9u-9">
          <mxGeometry relative="1" as="geometry" />
        </mxCell>
        <mxCell id="pWHwpGkM0wFhMGI71s9u-6" value="Percy Jackson&lt;br&gt;Mythological Creatures" style="rounded=0;whiteSpace=wrap;html=1;" vertex="1" parent="WIyWlLk6GJQsqaUBKTNV-1">
          <mxGeometry x="-360" y="250" width="120" height="60" as="geometry" />
        </mxCell>
        <mxCell id="pWHwpGkM0wFhMGI71s9u-33" style="edgeStyle=orthogonalEdgeStyle;rounded=0;orthogonalLoop=1;jettySize=auto;html=1;exitX=1;exitY=0.5;exitDx=0;exitDy=0;" edge="1" parent="WIyWlLk6GJQsqaUBKTNV-1" source="pWHwpGkM0wFhMGI71s9u-7" target="pWHwpGkM0wFhMGI71s9u-13">
          <mxGeometry relative="1" as="geometry" />
        </mxCell>
        <mxCell id="pWHwpGkM0wFhMGI71s9u-7" value="Fallout Commonwealth&lt;br&gt;Sci-fi Experiments&lt;br&gt;Dog Dies" style="rounded=0;whiteSpace=wrap;html=1;" vertex="1" parent="WIyWlLk6GJQsqaUBKTNV-1">
          <mxGeometry x="-40" y="250" width="120" height="60" as="geometry" />
        </mxCell>
        <mxCell id="pWHwpGkM0wFhMGI71s9u-35" style="edgeStyle=orthogonalEdgeStyle;rounded=0;orthogonalLoop=1;jettySize=auto;html=1;exitX=1;exitY=0.5;exitDx=0;exitDy=0;entryX=0;entryY=0.5;entryDx=0;entryDy=0;" edge="1" parent="WIyWlLk6GJQsqaUBKTNV-1" source="pWHwpGkM0wFhMGI71s9u-8" target="pWHwpGkM0wFhMGI71s9u-11">
          <mxGeometry relative="1" as="geometry" />
        </mxCell>
        <mxCell id="pWHwpGkM0wFhMGI71s9u-8" value="Doom 2&lt;br&gt;Nightmares from Hell" style="rounded=0;whiteSpace=wrap;html=1;" vertex="1" parent="WIyWlLk6GJQsqaUBKTNV-1">
          <mxGeometry x="340" y="240" width="120" height="60" as="geometry" />
        </mxCell>
        <mxCell id="pWHwpGkM0wFhMGI71s9u-32" style="edgeStyle=orthogonalEdgeStyle;rounded=0;orthogonalLoop=1;jettySize=auto;html=1;exitX=1;exitY=0.5;exitDx=0;exitDy=0;" edge="1" parent="WIyWlLk6GJQsqaUBKTNV-1" source="pWHwpGkM0wFhMGI71s9u-9" target="pWHwpGkM0wFhMGI71s9u-7">
          <mxGeometry relative="1" as="geometry" />
        </mxCell>
        <mxCell id="pWHwpGkM0wFhMGI71s9u-9" value="Star Wars&lt;br&gt;Various Vermin" style="rounded=0;whiteSpace=wrap;html=1;" vertex="1" parent="WIyWlLk6GJQsqaUBKTNV-1">
          <mxGeometry x="-180" y="250" width="120" height="60" as="geometry" />
        </mxCell>
        <mxCell id="pWHwpGkM0wFhMGI71s9u-37" style="edgeStyle=orthogonalEdgeStyle;rounded=0;orthogonalLoop=1;jettySize=auto;html=1;exitX=1;exitY=0.5;exitDx=0;exitDy=0;entryX=0;entryY=0.75;entryDx=0;entryDy=0;" edge="1" parent="WIyWlLk6GJQsqaUBKTNV-1" source="pWHwpGkM0wFhMGI71s9u-10" target="pWHwpGkM0wFhMGI71s9u-14">
          <mxGeometry relative="1" as="geometry" />
        </mxCell>
        <mxCell id="pWHwpGkM0wFhMGI71s9u-10" value="40k Catachan&lt;br&gt;Death World&lt;br&gt;Power Creep and Translation&lt;br&gt;Aether Guy Lost" style="rounded=0;whiteSpace=wrap;html=1;" vertex="1" parent="WIyWlLk6GJQsqaUBKTNV-1">
          <mxGeometry x="-360" y="360" width="120" height="60" as="geometry" />
        </mxCell>
        <mxCell id="pWHwpGkM0wFhMGI71s9u-36" style="edgeStyle=orthogonalEdgeStyle;rounded=0;orthogonalLoop=1;jettySize=auto;html=1;exitX=0;exitY=1;exitDx=0;exitDy=0;" edge="1" parent="WIyWlLk6GJQsqaUBKTNV-1" source="pWHwpGkM0wFhMGI71s9u-11" target="pWHwpGkM0wFhMGI71s9u-10">
          <mxGeometry relative="1" as="geometry" />
        </mxCell>
        <mxCell id="pWHwpGkM0wFhMGI71s9u-11" value="Hunter x Hunter&lt;br&gt;Aggressive Wildlife" style="rounded=0;whiteSpace=wrap;html=1;" vertex="1" parent="WIyWlLk6GJQsqaUBKTNV-1">
          <mxGeometry x="510" y="240" width="120" height="60" as="geometry" />
        </mxCell>
        <mxCell id="pWHwpGkM0wFhMGI71s9u-39" style="edgeStyle=orthogonalEdgeStyle;rounded=0;orthogonalLoop=1;jettySize=auto;html=1;exitX=1;exitY=0.5;exitDx=0;exitDy=0;" edge="1" parent="WIyWlLk6GJQsqaUBKTNV-1" source="pWHwpGkM0wFhMGI71s9u-12" target="pWHwpGkM0wFhMGI71s9u-15">
          <mxGeometry relative="1" as="geometry" />
        </mxCell>
        <mxCell id="pWHwpGkM0wFhMGI71s9u-12" value="Evolve&#39;s Shear&lt;br&gt;Alien Monsters&lt;br&gt;Clique HQ Destroyed" style="rounded=0;whiteSpace=wrap;html=1;" vertex="1" parent="WIyWlLk6GJQsqaUBKTNV-1">
          <mxGeometry x="20" y="350" width="120" height="60" as="geometry" />
        </mxCell>
        <mxCell id="pWHwpGkM0wFhMGI71s9u-34" style="edgeStyle=orthogonalEdgeStyle;rounded=0;orthogonalLoop=1;jettySize=auto;html=1;exitX=1;exitY=0.5;exitDx=0;exitDy=0;entryX=0;entryY=0.5;entryDx=0;entryDy=0;" edge="1" parent="WIyWlLk6GJQsqaUBKTNV-1" source="pWHwpGkM0wFhMGI71s9u-13" target="pWHwpGkM0wFhMGI71s9u-8">
          <mxGeometry relative="1" as="geometry" />
        </mxCell>
        <mxCell id="pWHwpGkM0wFhMGI71s9u-13" value="Alien Vs Predator&lt;br&gt;Hunter vs Hunted" style="rounded=0;whiteSpace=wrap;html=1;" vertex="1" parent="WIyWlLk6GJQsqaUBKTNV-1">
          <mxGeometry x="140" y="250" width="120" height="60" as="geometry" />
        </mxCell>
        <mxCell id="pWHwpGkM0wFhMGI71s9u-38" style="edgeStyle=orthogonalEdgeStyle;rounded=0;orthogonalLoop=1;jettySize=auto;html=1;entryX=0;entryY=0.5;entryDx=0;entryDy=0;" edge="1" parent="WIyWlLk6GJQsqaUBKTNV-1" source="pWHwpGkM0wFhMGI71s9u-14" target="pWHwpGkM0wFhMGI71s9u-12">
          <mxGeometry relative="1" as="geometry" />
        </mxCell>
        <mxCell id="pWHwpGkM0wFhMGI71s9u-14" value="Dark Souls Lordran&lt;br&gt;Undead Monsters" style="rounded=0;whiteSpace=wrap;html=1;" vertex="1" parent="WIyWlLk6GJQsqaUBKTNV-1">
          <mxGeometry x="-180" y="350" width="120" height="60" as="geometry" />
        </mxCell>
        <mxCell id="pWHwpGkM0wFhMGI71s9u-41" style="edgeStyle=orthogonalEdgeStyle;rounded=0;orthogonalLoop=1;jettySize=auto;html=1;exitX=1;exitY=0.5;exitDx=0;exitDy=0;entryX=0;entryY=0.5;entryDx=0;entryDy=0;" edge="1" parent="WIyWlLk6GJQsqaUBKTNV-1" source="pWHwpGkM0wFhMGI71s9u-15" target="pWHwpGkM0wFhMGI71s9u-16">
          <mxGeometry relative="1" as="geometry" />
        </mxCell>
        <mxCell id="pWHwpGkM0wFhMGI71s9u-15" value="Dungeons and Dragons&lt;br&gt;Anti-Magic Foes&lt;br&gt;Clique spell casters" style="rounded=0;whiteSpace=wrap;html=1;" vertex="1" parent="WIyWlLk6GJQsqaUBKTNV-1">
          <mxGeometry x="190" y="350" width="120" height="60" as="geometry" />
        </mxCell>
        <mxCell id="pWHwpGkM0wFhMGI71s9u-42" style="edgeStyle=orthogonalEdgeStyle;rounded=0;orthogonalLoop=1;jettySize=auto;html=1;exitX=1;exitY=0.5;exitDx=0;exitDy=0;" edge="1" parent="WIyWlLk6GJQsqaUBKTNV-1" source="pWHwpGkM0wFhMGI71s9u-16" target="pWHwpGkM0wFhMGI71s9u-17">
          <mxGeometry relative="1" as="geometry" />
        </mxCell>
        <mxCell id="pWHwpGkM0wFhMGI71s9u-16" value="Monster Hunter&lt;br&gt;Massive Beasts" style="rounded=0;whiteSpace=wrap;html=1;" vertex="1" parent="WIyWlLk6GJQsqaUBKTNV-1">
          <mxGeometry x="370" y="350" width="120" height="60" as="geometry" />
        </mxCell>
        <mxCell id="pWHwpGkM0wFhMGI71s9u-43" style="edgeStyle=orthogonalEdgeStyle;rounded=0;orthogonalLoop=1;jettySize=auto;html=1;exitX=0;exitY=1;exitDx=0;exitDy=0;" edge="1" parent="WIyWlLk6GJQsqaUBKTNV-1" source="pWHwpGkM0wFhMGI71s9u-17" target="pWHwpGkM0wFhMGI71s9u-18">
          <mxGeometry relative="1" as="geometry" />
        </mxCell>
        <mxCell id="pWHwpGkM0wFhMGI71s9u-17" value="MTG Alara&lt;br&gt;Beast Society" style="rounded=0;whiteSpace=wrap;html=1;" vertex="1" parent="WIyWlLk6GJQsqaUBKTNV-1">
          <mxGeometry x="530" y="350" width="120" height="60" as="geometry" />
        </mxCell>
        <mxCell id="pWHwpGkM0wFhMGI71s9u-44" style="edgeStyle=orthogonalEdgeStyle;rounded=0;orthogonalLoop=1;jettySize=auto;html=1;exitX=1;exitY=0.5;exitDx=0;exitDy=0;entryX=0;entryY=0.5;entryDx=0;entryDy=0;" edge="1" parent="WIyWlLk6GJQsqaUBKTNV-1" source="pWHwpGkM0wFhMGI71s9u-18" target="pWHwpGkM0wFhMGI71s9u-19">
          <mxGeometry relative="1" as="geometry" />
        </mxCell>
        <mxCell id="pWHwpGkM0wFhMGI71s9u-18" value="Borderland&#39;s Pandora&lt;br&gt;Invincible Bosses" style="rounded=0;whiteSpace=wrap;html=1;" vertex="1" parent="WIyWlLk6GJQsqaUBKTNV-1">
          <mxGeometry x="-360" y="480" width="120" height="60" as="geometry" />
        </mxCell>
        <mxCell id="pWHwpGkM0wFhMGI71s9u-45" style="edgeStyle=orthogonalEdgeStyle;rounded=0;orthogonalLoop=1;jettySize=auto;html=1;exitX=1;exitY=0.5;exitDx=0;exitDy=0;" edge="1" parent="WIyWlLk6GJQsqaUBKTNV-1" source="pWHwpGkM0wFhMGI71s9u-19" target="pWHwpGkM0wFhMGI71s9u-20">
          <mxGeometry relative="1" as="geometry" />
        </mxCell>
        <mxCell id="pWHwpGkM0wFhMGI71s9u-19" value="One Piece&lt;br&gt;Giant Sea Monsters" style="rounded=0;whiteSpace=wrap;html=1;" vertex="1" parent="WIyWlLk6GJQsqaUBKTNV-1">
          <mxGeometry x="-190" y="480" width="120" height="60" as="geometry" />
        </mxCell>
        <mxCell id="pWHwpGkM0wFhMGI71s9u-46" style="edgeStyle=orthogonalEdgeStyle;rounded=0;orthogonalLoop=1;jettySize=auto;html=1;exitX=1;exitY=0.5;exitDx=0;exitDy=0;" edge="1" parent="WIyWlLk6GJQsqaUBKTNV-1" source="pWHwpGkM0wFhMGI71s9u-20" target="pWHwpGkM0wFhMGI71s9u-21">
          <mxGeometry relative="1" as="geometry" />
        </mxCell>
        <mxCell id="pWHwpGkM0wFhMGI71s9u-20" value="Rampage&amp;nbsp;&lt;br&gt;Kaiju Villains&lt;br&gt;Plant Guy Dies" style="rounded=0;whiteSpace=wrap;html=1;" vertex="1" parent="WIyWlLk6GJQsqaUBKTNV-1">
          <mxGeometry x="10" y="470" width="120" height="60" as="geometry" />
        </mxCell>
        <mxCell id="pWHwpGkM0wFhMGI71s9u-47" style="edgeStyle=orthogonalEdgeStyle;rounded=0;orthogonalLoop=1;jettySize=auto;html=1;entryX=0;entryY=0.5;entryDx=0;entryDy=0;" edge="1" parent="WIyWlLk6GJQsqaUBKTNV-1" source="pWHwpGkM0wFhMGI71s9u-21" target="pWHwpGkM0wFhMGI71s9u-22">
          <mxGeometry relative="1" as="geometry" />
        </mxCell>
        <mxCell id="pWHwpGkM0wFhMGI71s9u-21" value="Pokemon&amp;nbsp;&lt;br&gt;Pocket Monsters&lt;br&gt;Clique Defeated" style="rounded=0;whiteSpace=wrap;html=1;" vertex="1" parent="WIyWlLk6GJQsqaUBKTNV-1">
          <mxGeometry x="150" y="470" width="120" height="60" as="geometry" />
        </mxCell>
        <mxCell id="pWHwpGkM0wFhMGI71s9u-22" value="Toriko&amp;nbsp;&lt;br&gt;Planet-busting enemies&lt;br&gt;Big Bad and Water Girl Dies" style="rounded=0;whiteSpace=wrap;html=1;" vertex="1" parent="WIyWlLk6GJQsqaUBKTNV-1">
          <mxGeometry x="370" y="470" width="120" height="60" as="geometry" />
        </mxCell>
      </root>
    </mxGraphModel>
  </diagram>
</mxfile>
